<svg xmlns="http://www.w3.org/2000/svg" width="682.7" height="682.7" version="1.0" viewBox="0 0 512 512"><path d="M293 23c-11 5-17 10-25 18l-8 8-3-5c-4-6-9-11-15-13-4-2-7-2-14-2-11 0-18 1-29 7-8 4-18 12-17 13s4-1 7-3c6-3 8-3 14-3l7 1 6 1c4-1 5-1 4-2l-9-3-6-2 9-2c12-3 25-3 30 0 4 3 9 10 11 18 3 9 2 11-1 5-6-10-15-18-22-19l1 1c9 5 18 16 21 26 0 2-1 1-3-2-1-3-4-5-5-6-2-2-2-2 0 2 4 6 6 14 6 25l1 9-3-8c-3-10-9-21-15-26l-3-4 4 8 9 31c1 8-1 5-4-5s-6-17-12-22c-8-8-23-13-32-11-4 1-4 1 3 1 13 0 27 7 33 16 3 5 5 11 7 19 0 4 0 4-2 3l-2-2-2-8c-1-5-3-8-7-12-5-6-13-11-17-11l4 3 8 6c4 4 7 12 8 17l1 3-3-2-6-5-5-5-3-2 2 3 3 7c1 3 2 4 9 7 12 5 21 11 23 17 2 2 6 21 6 24l-2-3c-4-5-14-12-19-12l3 3c11 6 17 15 20 32 3 13 3 14 4 3 1-10 2-17 5-21 2-5 8-11 13-14s3-4-2-2c-7 3-13 10-16 19-1 2-1 2-1-2l1-16v-13l3-4c4-4 14-10 24-13l6-2 2 2 9 7c6 4 8 6 10 10a365 365 0 0 0 49 55l-9-8 6 3c4 2 11 6 15 10 10 7 17 11 23 12l3 1-4-4-8-6-22-15 8 2c6 2 10 3 16 3h8l4 5 5 6h-10l3 2c2 2 9 14 13 25l2 5-5-4a181 181 0 0 0-40-21l9 5 16 10c12 6 20 13 23 19 3 4 1 3-8-5a159 159 0 0 0-47-28l13 11 17 14c13 15 20 29 22 50a146 146 0 0 1-10 76l1-7 2-14c0-6 0-6-1-5l-5 11c-5 19-9 26-22 46-10 15-11 18-3 10 7-8 19-24 23-33 3-7 5-9 4-4 0 4 1 4 3-2 5-8 11-44 11-60 0-20-4-36-12-53l-5-10 5 5c7 7 9 13 12 29a213 213 0 0 1-6 83l-4 17 10-22c6-19 10-45 9-63-1-13-4-28-6-34l-2-5 4 2 4 2-3-6-6-15-6-15-3-7h5l4-1-3-3-6-8-6-8-3-3 1-4c2-5 2-5 0-4-3 0-9-1-12-4l-3-2 3-6c4-8 6-19 6-33s-1-21-6-31c-4-7-13-17-19-20-4-2-5-2-18-2l-20-1-5-2 3-4 2-5-5 2c-5 2-7 3-12 1-6-2-3-4 5-4 5 0 11-1 13-3 1-1 0-2-4-1h-10c-18-3-22-4-27-3h-5l6-12c4-4 3-4-5 0zm-10 17-2 7 4-3c5-5 12-7 21-6l7 2-9 10-8 8 8-5c7-5 8-5 12-4l6 1-12 4-1 1 8-1 7-2 4 2 7 3 2 1c0 1-4 3-7 3-2 0-2 0-1 1l5 1h3l-9 9c-10 9-12 12-14 17 0 2 1 1 6-4 13-13 29-24 37-25 4-1 4-1-1 1-7 3-12 6-15 10l-3 2 4-2c11-9 22-10 30-6 9 5 16 17 19 29v20l-4 4c-5 8-11 10-16 6-2-1-2-1 0-3 4-5 5-11 3-16-4-7-16-8-24-2l-5 2 10-9c5-2 11-1 17 1l5 1c0-2-4-7-7-8-6-2-14-1-20 4l-7 10c-3 6-3 6-3 2 4-20 27-32 40-20 2 1 2 1 1-1l-5-5c-4-2-5-3-10-3-12 1-21 8-28 22l-4 7v-3c0-5 3-13 9-19 3-4 3-4 0-2-5 3-10 9-11 14l-1 10v7l-3-1c-4-2-13-9-16-15l-3-5v5c1 4 1 4-1 2-3-2-5-6-5-9s3-11 6-15l2-4-3 3-8 9-4 6-12 5-11 4 3-5c8-15 15-23 23-28 5-4 2-3-5 1-6 3-12 9-17 19-3 5-5 8-5 6a2557 2557 0 0 0 16-45v-2a2025 2025 0 0 1-29 69c-4-9 4-50 12-64l14-15-2 6zm-13 6c-3 3-10 19-13 29l-1 1c-1-1 2-12 5-17 2-5 8-14 10-14l-1 1zm67 70 12-1c4-3 5-2 1 1l-4 2 3 1 3 1h-8l7 4 7 3-5-1c-10-4-11-2-2 2a323 323 0 0 0 37 25c0 1-4 1-14-1-3 0-3 0-1 1l10 2c7 0 7 0 3 1-3 1-7 0-12-1-13-3-19-7-33-21l-15-17-3-4 3 2 11 1zm53 8c-1 7-3 10-7 15l-3 4-2-3-3-6-1-2 5-2c5-1 8-6 10-11 2-6 2-2 1 5zm8 35c-3 2-8 3-15 1l-4-2h7l11-1h4l-3 2z"/><path d="M314 61c0 2 8 8 10 8s1-1-2-3l-6-4-2-1zM324 82c-5 4-6 7-5 11l1 4 1-1c-1-2 1-8 4-13 4-5 4-5-1-1zM385 97h1v-2l-1 2zM385 102l-1 6c-2 5-2 5 1 1l1-6c-1-3-1-3-1-1zM198 48l-15 4c-6 2-8 2-23 2-19 0-21 1-30 11a61 61 0 0 0-16 41c0 10 3 27 6 33l2 6-2 2c-4 3-9 5-12 5l-3 1 3 5 4 4-11 12-11 12 4-1c3 0 3 0 2 2a273 273 0 0 0-15 27l19-13-3 5c-6 9-9 17-13 32-7 22-8 28-8 50 1 17 1 21 3 30a177 177 0 0 0 38 76l-2-7a467 467 0 0 1-13-62l-1-8 3 8c6 18 11 28 24 41a131 131 0 0 1 18 21l-4-16c-5-19-6-29-3-38l1-7-6-11c0-2 5-6 14-12 8-5 8-6 2-3-7 3-18 13-20 16l-1 4 2-3 2-2 2 5 4 6v3l-3 9-2 7-8-8c-8-9-14-20-18-31-2-10-3-30 0-41 4-21 19-48 35-65 6-7 6-7 3-5l-7 4a117 117 0 0 0-19 25c-2-2-16 23-18 30l4-7 14-22-3 5a328 328 0 0 0-27 68l9-22-2 12a140 140 0 0 0-2 66c-1 1-8-17-10-24a154 154 0 0 1 9-90l3-8-3 14a225 225 0 0 0-5 34c2-16 5-28 9-43 4-13 6-16 12-23 8-9 16-15 29-21 8-4 13-7 14-9l1-2-2 2c-1 1-5 4-9 5-16 7-30 18-46 37-3 5-6 7-6 6 2-6 9-16 16-25 4-4 12-13 16-20 9-11 9-11 27-22 9-6 39-39 47-53l8-10c5-4 5-5 6-10 0-7-3-14-7-17l-4-2 3 3c4 5 5 10 5 15s-2 9-4 9l-3 3c-3 2-13 9-15 9l-1-6c0-10-5-20-13-26-4-2-3-2 1 4s6 12 6 19v6l-3-5c-6-10-12-14-22-14-6 0-6 0-10 4l-4 5 5-2 10-1c9 0 13 1 17 7l2 3-4-3c-9-5-19-5-25 1-3 3-3 10 0 15l2 4-9 3c-3 0-8-4-12-10-2-2-2-2-1 2 2 8 6 12 12 13l4 1-4 5-3 6-4-7c-6-8-8-15-8-29 0-16 3-25 11-35 9-11 23-13 38-3 6 4 6 4 3 1-4-4-11-8-17-9l-5-2 5 1c15 2 40 24 40 36 0 5 2 0 2-5 0-7-5-14-18-25l-4-3h5l6-1c3-1 2-2-2-2l-7-1c-2 0-2-2 1-2l7-2a2921 2921 0 0 1 10-7zm-31 67c7 2 14 3 20 1l4-2-6 8a89 89 0 0 1-36 30c-6 3-9 3-17 4-13 0-14 0-6-4l16-10a125 125 0 0 1 35-19l-15 3c-4 1-1-2 5-4l4-2h-4c-5 0-5 0-2-1h4l-4-3c-5-3-5-4 2-1zm-49 44 13 1c5 0 9 0 8 1l-8 5c-8 6-25 22-19 18 2-1 5-3 8-3 3-2 3-2 1 0l-18 13-10 6-2 2 11-16 2-3-2-1c-2 0-2-1 4-8l11-10c4-2 5-4 1-4-2 0-7-3-5-3l5 2zm37 1c-4 3-10 7-14 8a164 164 0 0 1 18-10c-1-1-2 0-4 2zm-54 173 5 28v3l-2-4c-2-3-4-4-2-1 1 2 1 2-1 0l-4-8c-3-7-4-29-2-42l1-9 1 11 3 22zm22 11c4 6 11 20 9 20l-11-18-4-10 6 8z"/><path d="M144 152h2l-2-1v1zM134 153l-4 1h4l6-1h-6zM114 171l-5 7 5-5c5-6 5-7 0-2zM191 66l-4 3 10-5c1-2 0-1-6 2zM145 78c-12 3-22 21-17 32l1 1c-2-10 1-20 7-25 12-10 33-3 40 12 2 5 3 4 0-2-2-8-6-12-12-15-7-3-14-4-19-3zM215 126l-10 10-11 11-10 11c-3 5-4 6-2 6 1 0 4-2 7-7l9-11 8-9c4-6 8-9 15-12l1-2-7 3zM301 126c4 3 26 25 30 31 3 4 7 7 8 6 1 0-9-13-13-16l-11-10c-6-7-14-13-16-13l2 2zM298 135h1v-2l-1 2z"/><path d="m222 135-4 9c-3 6-3 7-3 11l2 8c0 2 0 2-2 1-5-4-10-4-19 0-6 3-8 3-14 3l-7-1 5 4c4 2 7 5 9 9 4 6 9 9 15 11 7 1 7 1 2-1-7-2-11-5-13-9-3-6-4-6-1-6l5 4c2 4 8 8 13 8 6 0 10 9 9 19-1 5-1 7-7 16-9 13-16 25-19 34l-2 6v-8c0-13 0-13 5-24l4-11c0-3-2-6-8-12s-7-8-9-13l-2-11c0-9-2 0-2 9 0 10 1 14 10 23l5 8-2 8-2 9v3l-2-2-5-3c-8-1-15-12-17-29v3c0 12 3 22 7 27 4 3 4 3 9 2h5l-1 7c0 6 0 9 2 15 3 11 3 13-2 5-2-5-5-9-10-12-6-6-9-10-13-19l-1-2c1 10 4 17 14 31 4 5 4 7 1 8-6 2-17-13-22-29l-3-19-1-11 1 15c0 11 0 17 2 22 2 9 7 19 9 21 1 1 0 2-6 5-10 5-11 7-2 3l9-4 2 2 2 3-6 1c-11 4-20 10-26 17-2 3-2 3 4-2 6-6 15-11 24-13l5-2 3 3 3 2-7 2c-10 3-24 10-31 15l-6 5-2-9a936 936 0 0 1-1 2c3 9 3 9 0 15l-3 7 2-4c4-8 5-10 12-15 10-9 31-17 38-15h4l-4 2h-1l6-1 4-1h5c5 0 5 0 5-2 0-3 0-3 4 1 7 8 18 12 30 12l6-1-5-1c-11 0-25-6-33-13-3-4-3-5-3-9 0-14 1-19 6-29 9-21 11-25 18-35l7-10v-7c0-6-1-10-3-17-3-8-3-11-3-20l1-17 2-7h-1zm-12 34-2 1-2 1c-1 1 1 5 3 5 1 0 4-4 3-5h2c4 3 2 8-5 10-2 0-3 0-6-3-4-4-4-6 0-8 3-2 8-3 7-1zM299 137l2 6c2 8 1 25-2 34-3 6-3 7-2 14l2 11 2 3v-5l4-12-1 6c-2 9 1 17 8 25 2 2 2 1-1-3-5-8-6-15-4-23 2-5 3-7 8-7 4-1 7-4 12-9 3-5 5-4 3 2-2 3-7 8-11 9-3 2-3 2-1 2 5 0 13-7 15-13l11-10-6-1c-6 0-9 0-13-2-6-2-12-3-17-1-3 2-3 2-3 0 2-6 2-10 1-15-2-4-7-13-7-11zm16 32-3 1c-3 0-4 2-1 4 2 3 4 2 5-1l2-3 2 1c3 1 2 5-2 8-3 3-7 3-10 0-4-3-4-6 0-9 3-2 7-3 7-1z"/><path d="m203 158 5 1h2l-7-1zM315 159h2l-2-1v1zM319 160l4 2 3 1-7-4v1zM239 186c0 12-2 21-7 32l-3 10 4-8c5-11 7-20 7-33l-1-10v9zM341 185c0 10-6 20-13 23l-4 2h4c6 0 11-3 13-9 2-4 3-14 1-18-1-2-1-2-1 2zM124 195l-11 10 1-1 12-10 6-4-8 5zM287 193c0 1 0 2 1 1v-3c-1-1-1 0-1 1zM373 194c14 19 20 36 23 63 1 2 1-2 1-9-1-15-3-22-8-34-4-7-11-17-16-21l-3-3 3 4z"/><path d="M344 198c0 8-2 15-6 20l-3 5 3-3c5-5 7-12 7-21l-1-8v7zM279 197c0 3 1 4 1 2v-4c-1-2-1-1-1 2z"/><path d="M369 197c3 14 3 19 3 30 0 13-2 21-7 31s-15 17-18 14c-2-1 0-4 4-9 8-10 12-22 12-37v-9l-1 8c-1 14-4 20-12 28-4 4-7 7-9 12l-3 7v-11l-1-16-2-4-1 4-1 3v-3c0-4-3-13-6-19s-5-8-5-6l8 22 3 8v39l-1 5 6-1 12-2c6-2 15-1 20 2l6 2c2 0 13 9 14 11s1 3-1 6l-2 4c-1 0-6-7-8-12 0-3-2-6-3-7-2-3-2-2 1 4l2 6-6-3c-7-6-16-8-29-9h-12l-1 2-1 4 7 1 14 7-6-2c-3-2-7-3-10-3-7-1-7 2-1 2 15 2 27 11 30 23 1 2 0 2-4-3-4-3-6-5-7-4l-1-1-6-6c-10-6-12-7-17-8-5 0-6-1-3-3l2-2-5 2c-6 4-14 5-23 5h-3l8 2 10 2a104 104 0 0 1 28 20l-4-6-5-6h4c6-1 10 4 12 15 0 5-1 6-3 2l-2-1-1-1v-2l-6-4c-2-3-7-6-10-7l-25-11 9 5 9 5c0 1-9 7-13 8-7 1-12-1-23-9-18-12-19-13-19-17s4-12 8-17c3-4 12-9 15-9 4 0 13-5 16-9 4-5 8-14 8-21l-3-10-2-2c3 11 2 14-5 22l-5 5-2-2c-3-3-7-3-16 0a44 44 0 0 1-29 0c-9-3-15-3-18 0l-2 2-3-3-6-8c-2-5-3-10-1-17l-1 3c-4 8-4 14 0 22 4 9 10 15 19 18s12 5 16 10c5 6 7 12 7 17-1 3-1 4-12 11-22 15-31 16-42 3l-5-5-4 3c-6 3-11 8-13 12l-2 4 3-2c4-3 9-4 11-1 2 2 2 5 0 16a95 95 0 0 0 10 61l4 9c0 5 4 14 10 22 22 27 25 33 30 42l4 10 5-8c8-17 23-33 46-52a432 432 0 0 0 24-20l-5 8-4 7 4-4 8-8c4-5 14-13 15-12l-4 7c-4 5-4 5-1 3s8-9 12-15l9-12c7-8 16-23 19-30l2-4-2 3-5 5-2 3 2-6c1-7 0-14-3-19l-2-3 2-2c2 0 5-4 7-7l5-4 1-1 3-8c3-8 8-21 8-27a266 266 0 0 1-6 17l-2 5-2-2c-5-6-19-15-26-15l-20-3c0-2 10-1 15 0l6 2-13-4-3-1 7-1c7 0 7 0 2-1h-4l2-2c3-2 3-2 6 0l3 3 3 2c1 0 6 2 9 5 5 5 6 5 4 2l-3-3 1-2c6-6 8-15 7-33a221 221 0 0 0-3-19l1 26c0 17 0 19-5 25l-2 2-4-3a81 81 0 0 0-14-8l2-3c12-16 16-40 11-65a146 146 0 0 0-3-12zm-116 70 2 2-3-2-1-3s2 1 2 3zm10 15-1 4-1 4v-8c-1-1 0-2 1-2l1 2zm101 18 10 6c4 3 6 4 6 7 1 3 1 3 1 1v-3l3 3c3 4 2 5-5 14-6 5-6 5-4 8 2 5 3 17 0 22-2 6-7 14-8 14l2-7c2-9 1-19-1-28-3-11-5-15-12-25l-6-8v-1c-2 0-4-2-5-3l-2-3h8l13 3zm-38 8c2 0 1 2-1 5l-2 2-6-2-6-2 4-2 6-1 2-1 3 1zm9 5 6 2c1-1 10 5 10 6l4 4 6 6c2 3 2 3 1 9l-7 15c-2 0-3-10-3-17-1-7-1-9-3-13-2-5-8-9-16-12-3 0-5-1-5-2l7 2zm-67 12 3 2v-2l10 8 10 8-4-5c-5-5-5-5-2-4 4 2 5 3 8 8 2 5 3 4 1-1-2-4-2-4 0-3l8 2c5 0 6 1 7 5v8l-2 4c-1 0-2 1-2 3s0 2-2-2-2-4-3-2l-2 9-1-4c-1-2-1-1-1 3v7l-3-6c-3-7-3-7-5-4-1 2-1 2-1-3v-5l-2 4c-1 3-15 18-14 15l2-5c0-3-1-1-3 4l-3 7-1-4-6-8c-3-3-3-3-3-1s0 2-2 0l-4-4-1-3-2 2-2 7c-1 3-2 4-2 2l-1-7v-5l-2 4c-1 4-1 4-2 2v-10l-5 8-4 8v-14l-3 5-2 4v-5c1-5 0-6-1-3-1 2-1 2-3-1l-1-9v-6h5l9-2c4-3 4-3 2 2-3 5-2 5 3-1 2-4 5-6 9-7l7-4c3-1 3-1 2 1l3-2 4-3 4 3zm67 4c5 4 7 7 7 11 0 3 0 3 1 1 0-3 0-3 3 2 3 4 3 6 3 10l-1 7c-1 2 0 1 0 0l2-6c0-2 0-2 1 1s1 3-2 7l-7 8c-3 3-4 4-2 3l6-5a100 100 0 0 0 18-28 62 62 0 0 1-21 56c-5 3-4 0 2-7 6-6 11-15 12-19l-2 4-15 19v-3c1-5-1-3-8 6s-14 17-34 34l-15 13 2-5 29-55c5-7 13-22 15-30l1-17v-10l5 3zm-9 14c0 13-5 27-13 39-2 4-2 4 0-3a357 357 0 0 0 12-46l1 10zm-124 16a102 102 0 0 0 12 53c-1 1-8-13-11-21-3-9-3-10-3-25v-21l1-6 1 4v16zm112 5c-1 8-4 17-9 27s-11 19-12 19l1-7 5-18 2-12 6-7 6-7 1-1v6zm-90 19c6 15 8 24 9 42l3 19-5-12c-13-31-16-43-16-60v-10l3 5 6 16zm3-7a179 179 0 0 1 14 36l-4-17c-5-14-6-21-4-23s2-2 3 3l9 17c8 18 11 28 12 45l1 15c1 1 2-22 2-29-1-12-6-24-13-36l-2-4 2-2 3-2 6 15 5 14-9-31c0-2 2 0 6 6 7 9 9 13 11 21 1 8 2 3 0-6l-1-6 4-6 5-7v6a819 819 0 0 0-4 32l-3 12 9-25c12-35 11-31 12-28l2 2 3-2v4c0 8-4 28-5 32l-9 15c-14 19-20 30-24 45l-1 7-4-13-7-26-10-31a255 255 0 0 0-15-42l6 9z"/><path d="m352 304 8 4-7-4h-1zM347 320l2 1-1-2c-2-1-2-1-1 1zM340 349a154 154 0 0 1-9 21c4-5 12-24 11-26l-2 5zM331 391zM270 415c0 2 0 3 1 2v-4c-1-1-1 0-1 2zM242 419c0 1 0 2 1 1v-2c-1-1-1 0-1 1zM149 198c-7 5-16 30-18 49-2 15 2 31 9 39l3 3-4-7c-8-16-8-37 1-66 3-9 5-13 9-18 5-4 4-4 0 0zM175 198c0 4 3 14 4 14l-1-3-2-10c-1-4-1-4-1-1zM384 201l4 5-6-7 2 2zM288 200h1v-2l-1 2zM280 206l2 9-1-8c-1-5-1-5-1-1zM289 204h1v-2l-1 2zM387 202l2 2c1 1 1 1 0 0l-2-2zM291 208c0 3 7 18 10 21l-4-8-6-13-1-2 1 2zM391 208l7 13-4-6-6-8 2 3 9 18 2 3-2-5v-4c0-2-5-13-8-15v1zM354 214c0 6-4 16-6 19l-8 5-4 2 4 1c6 0 9-2 12-7 2-4 3-14 3-19-1-4-1-4-1-1zM180 214l2 2c1 1 1 1 0 0l-2-2zM131 222c-4 9-5 17-5 30 0 19 2 24 2 6 0-17 1-29 4-36 2-6 2-6-1 0zM380 220h1v-2l-1 2zM325 253c3 8 1 16-6 21-4 3-4 4 1 1s8-6 9-10c0-3-3-13-5-15v3zM409 265c-1 14-3 24-8 37-5 12-6 12-2 6 8-13 11-28 11-45l-1-10v12zM203 258c0 8 4 13 12 17 5 2 5 1 0-2-5-4-9-9-10-13-2-7-2-7-2-2zM196 271c0 2 6 10 10 13 6 4 12 6 22 7h8l-9-2c-15-4-22-8-29-17l-2-1zM328 279c-3 4-13 8-23 10-10 1-12 2-7 2 13 0 28-5 32-11 2-3 1-4-2-1zM123 280c0 1 0 2 1 1v-2c-1-1-1 0-1 1zM327 291c-7 5-15 7-27 8l-10 1h8c12 2 23-2 31-9 5-4 3-4-2 0zM181 293c-11 2-17 4-17 5l-4 6-4 6-3 3c-2 3-1 3 4-1l16-8c2-1 2-1-2 5l-5 8-6 9c-5 7-10 18-10 21l2-4c3-8 11-20 12-19 2 3 1 8-1 12-4 5-6 14-6 22 0 5 0 5 1-3 1-9 2-14 6-19l2-3 3 7c2 7 4 10 10 18 8 10 8 7-3-14l-6-13 3-3 6-5 4-2v3c-3 14-3 24 2 35s5 11 1 0c-4-12-5-24-3-29 4-7 14-15 23-18l15-2 14-1-7-1c-10 0-17-2-24-6-5-3-6-3-16-4l-13-1h9l13 1-1-6c0-1-3-1-15 1zm-5 6c2 1 2 1-2 2l-11 6-7 3c-1 0 6-7 10-9 4-3 6-3 10-2zm21 2-6 1-16 6-1-1c2-2 9-5 15-6h8zm5 1c2 2 2 3 1 3v1l4 1 4 1-3 2-5 2-2-4c-4-8-4-10 1-6zm-11 8c-5 2-10 6-15 11-7 7-8 7-8 6-3-9 1-12 19-18 12-4 13-4 4 1zm-7 6-7 6-6 5 5-5 8-6zM398 324zM124 328h1v-2l-1 2zM142 335c-3 17 1 36 10 53 3 6 16 23 17 23a604 604 0 0 0-19-57l-1-4-4-10-3-10v5z"/><path d="M170 366c1 8 3 18 6 24v3l-16-25c-2-4-2-3 0 5a88 88 0 0 0 29 46l-3-5-2-4 5 5a280 280 0 0 1 18 18l2 4-1-8c-1-15-4-22-13-33-3-4-5-6-6-5-1 2 2 14 7 24l2 4c-1 0-13-17-14-21a338 338 0 0 1-15-37l1 5z"/></svg>
